HIERARCHY
ROOT Hips
{
	OFFSET 153.460495 90.984810 357.406311
	CHANNELS 6 Xposition Yposition Zposition Zrotation Yrotation Xrotation 
	JOINT LeftUpLeg
	{
		OFFSET 0.103456 1.857840 10.548501
		CHANNELS 3 Xrotation Yrotation Zrotation
		JOINT LeftLeg
		{
			OFFSET 43.499992 -0.000038 -0.000006
			CHANNELS 3 Xrotation Yrotation Zrotation
			JOINT LeftFoot
			{
				OFFSET 42.372196 0.000031 0.000002
				CHANNELS 3 Xrotation Yrotation Zrotation
				JOINT LeftToe
				{
					OFFSET 17.299974 -0.000010 -0.000017
					CHANNELS 3 Xrotation Yrotation Zrotation
					End Site
					{
						OFFSET 0.000000 0.000000 0.000000
					}
				}
			}
		}
	}
	JOINT RightUpLeg
	{
		OFFSET 0.103462 1.857831 -10.548510
		CHANNELS 3 Xrotation Yrotation Zrotation
		JOINT RightLeg
		{
			OFFSET 43.500046 -0.000015 0.000008
			CHANNELS 3 Xrotation Yrotation Zrotation
			JOINT RightFoot
			{
				OFFSET 42.372265 -0.000015 0.000004
				CHANNELS 3 Xrotation Yrotation Zrotation
				JOINT RightToe
				{
					OFFSET 17.299995 -0.000004 0.000013
					CHANNELS 3 Xrotation Yrotation Zrotation
					End Site
					{
						OFFSET 0.000000 0.000000 0.000000
					}
				}
			}
		}
	}
	JOINT Spine
	{
		OFFSET 6.901966 -2.603716 -0.000002
		CHANNELS 3 Xrotation Yrotation Zrotation
		JOINT Spine1
		{
			OFFSET 12.588102 -0.000001 0.000005
			CHANNELS 3 Xrotation Yrotation Zrotation
			JOINT Spine2
			{
				OFFSET 12.343201 -0.000023 -0.000011
				CHANNELS 3 Xrotation Yrotation Zrotation
				JOINT Neck
				{
					OFFSET 25.832901 0.000011 0.000007
					CHANNELS 3 Xrotation Yrotation Zrotation
					JOINT Head
					{
						OFFSET 11.766600 -0.000002 0.000002
						CHANNELS 3 Xrotation Yrotation Zrotation
						End Site
						{
							OFFSET 0.000000 0.000000 0.000000
						}
					}
				}
				JOINT LeftShoulder
				{
					OFFSET 19.745907 -1.480350 6.000119
					CHANNELS 3 Xrotation Yrotation Zrotation
					JOINT LeftArm
					{
						OFFSET 11.284122 -0.000013 -0.000023
						CHANNELS 3 Xrotation Yrotation Zrotation
						JOINT LeftForeArm
						{
							OFFSET 33.000057 0.000005 0.000025
							CHANNELS 3 Xrotation Yrotation Zrotation
							JOINT LeftHand
							{
								OFFSET 25.199997 0.000020 0.000019
								CHANNELS 3 Xrotation Yrotation Zrotation
								End Site
								{
									OFFSET 0.000000 0.000000 0.000000
								}
							}
						}
					}
				}
				JOINT RightShoulder
				{
					OFFSET 19.746096 -1.480352 -6.000062
					CHANNELS 3 Xrotation Yrotation Zrotation
					JOINT RightArm
					{
						OFFSET 11.284150 0.000007 -0.000012
						CHANNELS 3 Xrotation Yrotation Zrotation
						JOINT RightForeArm
						{
							OFFSET 33.000092 0.000019 0.000012
							CHANNELS 3 Xrotation Yrotation Zrotation
							JOINT RightHand
							{
								OFFSET 25.199797 0.000118 0.000427
								CHANNELS 3 Xrotation Yrotation Zrotation
								End Site
								{
									OFFSET 0.000000 0.000000 0.000000
								}
							}
						}
					}
				}
			}
		}
	}
}
MOTION
Frames: 15
Frame Time: 0.033333
-296.966614 89.377670 -11.729350 87.961867 3.744104 -176.961896 144.296229 4.313201 179.800044 -34.332735 1.455066 3.116886 76.492094 -7.850031 -19.793789 21.454557 0.003109 0.000019 173.089602 -7.001907 -172.421842 -26.554975 1.537653 -12.690020 85.977602 7.508739 -5.241959 21.454545 -0.003089 0.000002 7.418523 -0.895354 2.488094 4.784115 -1.891925 4.937977 4.467106 -1.862243 4.949272 23.799027 -14.755787 11.728789 -11.754449 -0.203443 12.623001 -159.291978 -72.622444 -22.646006 21.343171 57.426721 38.926747 -38.910020 -13.592311 1.365583 7.187179 -1.209961 2.726218 -149.644090 86.261362 32.169925 -19.013343 -63.560572 -7.710686 -58.030476 21.322568 -2.458276 4.749316 -0.539076 -19.933772 
-296.134705 89.305779 -10.798580 87.226597 4.074502 179.939298 144.028691 4.762207 177.890501 -32.220864 1.434746 5.156926 76.342185 -10.157599 -22.470790 21.454562 0.003106 0.000011 173.298005 -7.971603 -172.724201 -25.966810 1.384558 -13.956812 85.327675 8.117058 -6.377000 21.454553 -0.003093 -0.000000 7.343428 -0.820487 2.579494 4.635594 -1.742708 5.124890 4.318718 -1.711905 5.135279 23.279185 -15.030630 11.543669 -12.628070 -0.061362 12.310962 -158.720906 -72.762811 -23.230976 21.562163 56.610510 39.253473 -40.059070 -13.853711 1.412385 7.032106 -1.647135 1.638755 -151.193081 86.773537 30.599118 -22.352335 -63.796316 -4.290838 -59.978596 20.824383 -2.497611 4.545453 -1.475501 -21.001534 
-295.256012 89.022163 -9.821121 86.401203 4.493029 176.914904 143.891226 4.928300 175.956465 -30.612187 1.382648 6.375939 76.691994 -11.238262 -23.381399 21.454558 0.003107 0.000016 173.422465 -9.097397 -173.332347 -25.743891 1.386743 -14.906669 85.297349 8.474560 -7.731665 21.454551 -0.003090 0.000001 7.247684 -0.729914 2.641658 4.447230 -1.559815 5.254031 4.130444 -1.528237 5.263317 22.663222 -15.218691 11.432023 -13.289602 0.176723 12.020768 -157.287126 -73.064965 -24.698980 21.778217 56.120376 39.257998 -41.188920 -14.027860 1.453873 7.313907 -2.211626 0.131700 -157.988054 87.128331 23.763000 -26.019930 -63.689677 -0.933687 -61.266394 20.416923 -2.518946 4.696109 -1.906741 -21.712398 
-294.431793 88.702232 -8.874813 85.537587 4.610213 174.132995 144.271736 5.430209 174.963956 -28.807634 1.018387 5.956493 75.770915 -10.531576 -21.401257 21.454562 0.003111 0.000023 173.482598 -9.886399 -174.799226 -25.678798 1.868848 -15.251358 85.578077 8.402615 -9.211866 21.454548 -0.003088 0.000002 7.137981 -0.683913 2.633957 4.230050 -1.462613 5.241809 3.913272 -1.431113 5.250510 22.331201 -15.492409 11.221187 -14.007236 0.683767 11.576700 -156.887915 -73.119593 -25.107922 21.881892 55.460347 38.487955 -42.043520 -14.216211 1.489536 7.211341 -2.607962 -0.452079 -166.873023 87.200328 14.836952 -29.672620 -63.355523 1.876651 -61.932091 20.352482 -2.540393 4.606865 -1.803658 -21.580206 
-293.594604 88.265671 -7.959219 84.654915 4.688991 171.433896 145.545662 5.654098 173.588903 -26.642401 0.635586 3.783208 74.483684 -8.571232 -19.397129 21.454558 0.003110 0.000020 173.407001 -10.552095 -176.031050 -26.026858 2.370418 -15.714481 86.170595 8.418035 -10.802950 21.454551 -0.003094 -0.000002 7.013888 -0.647932 2.598649 3.984013 -1.383868 5.174066 3.667241 -1.352776 5.182293 22.006820 -15.686501 11.092310 -14.699107 1.632647 11.061631 -157.480967 -73.061229 -24.499019 21.833492 54.600283 37.478085 -42.466250 -14.402402 1.513463 7.008250 -2.935899 -0.688111 -171.593080 87.091483 10.095911 -33.581933 -62.968839 4.326211 -61.805637 20.500610 -2.545794 4.702916 -0.607579 -21.469310 
-292.609711 87.837021 -7.060864 83.920588 4.645478 168.730493 147.525365 5.252700 172.525387 -24.379457 -0.143928 2.590799 74.196147 -5.650380 -12.691040 21.454558 0.003111 0.000020 173.539848 -10.929199 -176.102153 -26.556691 2.477775 -16.965042 86.749898 9.038569 -12.205470 21.454551 -0.003094 -0.000001 6.905968 -0.650206 2.540260 3.768942 -1.381708 5.058619 3.452079 -1.351309 5.066837 21.615705 -15.444629 11.045109 -15.310351 2.229785 10.739550 -157.514899 -72.914155 -24.468019 21.396664 53.864873 35.951493 -42.553178 -14.348252 1.512336 6.951882 -3.498124 -1.959591 -174.155084 86.799915 7.519014 -37.310824 -62.546918 5.818879 -60.581428 20.964689 -2.530589 3.682312 0.172670 -20.247838 
-291.629913 87.553787 -6.088587 82.580402 4.713848 166.259987 149.125747 4.746704 170.366091 -21.321549 0.229346 2.995114 77.264425 -2.697184 -2.403269 21.454560 0.003108 0.000018 173.001943 -11.314103 -175.849996 -27.234474 2.896467 -18.390173 86.441016 9.775681 -13.251980 21.454553 -0.003092 0.000001 6.642334 -0.613640 2.399009 3.245098 -1.293171 4.780439 2.928114 -1.264449 4.788135 21.404435 -15.071441 11.098370 -16.407902 2.648198 10.612816 -157.425069 -72.950518 -24.559067 21.307318 53.581075 34.202801 -42.394035 -14.237029 1.500605 7.253622 -4.433442 -2.831812 179.944079 86.683590 1.584955 -40.209795 -62.518081 6.068895 -58.369676 21.554532 -2.487140 2.634701 1.752453 -16.010105 
-290.539307 87.976189 -5.363277 81.949784 3.409753 164.787398 150.270391 6.544999 170.166978 -18.113853 1.584123 1.743172 74.403054 0.322254 4.956375 21.454560 0.003108 0.000017 173.020112 -10.133194 -175.509251 -27.100266 3.133928 -19.478410 84.994375 10.387420 -13.355918 21.454553 -0.003095 -0.000003 6.533354 -0.931993 2.037528 3.020452 -1.915832 4.051037 2.703007 -1.891488 4.062506 20.658201 -14.513571 11.441300 -16.403374 3.118531 10.702059 -157.946062 -73.173715 -24.020013 20.226547 53.899693 31.953753 -41.184026 -14.561424 1.488658 7.729883 -5.643468 -3.161980 179.763066 86.680223 1.403197 -43.799333 -62.939954 6.441651 -54.582395 21.958008 -2.375412 2.662791 4.799626 -11.156171 
-289.364807 88.461548 -4.486611 81.417262 2.131050 164.381002 151.031206 8.666199 175.116748 -16.306797 2.872163 -1.307291 72.898636 2.593573 5.203792 21.454560 0.003109 0.000018 172.601831 -9.230301 -176.277538 -27.602488 3.640965 -19.150300 83.402101 10.219509 -12.484520 21.454553 -0.003090 0.000002 6.508459 -1.332446 1.633153 2.966695 -2.705479 3.233132 2.648775 -2.686053 3.249394 20.273656 -14.420870 11.076532 -17.075972 3.608540 10.062177 -161.641099 -73.404248 -20.220966 17.775788 53.872738 29.012608 -39.501965 -14.723692 1.454618 8.550861 -7.304111 -6.477825 -172.525920 86.178942 9.153044 -46.419369 -63.270563 6.318396 -49.364014 21.482700 -2.163149 2.237616 7.826260 -5.954106 
-288.158112 89.144997 -3.369277 80.862644 1.651177 164.058507 151.924021 8.499601 177.197988 -15.259660 2.841341 -2.163177 72.626904 2.915935 4.264720 21.454558 0.003107 0.000017 172.580808 -9.233797 -175.485031 -27.566375 3.459338 -19.348159 80.486225 10.559883 -10.842959 21.454553 -0.003094 -0.000002 6.558392 -1.626081 1.358774 3.066793 -3.286902 2.675815 2.748520 -3.270828 2.695617 19.877538 -13.829461 10.701440 -18.393307 4.150448 9.385443 -164.888935 -74.903502 -16.876942 15.816048 55.178646 25.149819 -38.997074 -14.689539 1.439346 9.112219 -7.551137 -5.904005 -178.966024 85.691294 2.664112 -45.224776 -63.599416 3.426132 -44.480135 20.189238 -1.923459 4.082189 10.290380 -0.360524 
-286.920898 89.771172 -2.397490 80.170206 1.092235 162.464095 152.523711 7.358704 176.567043 -14.494952 2.293417 -2.157166 73.083072 2.772687 3.809828 21.454560 0.003106 0.000016 172.251415 -8.862393 -172.837718 -28.035685 2.499362 -21.355380 77.550070 12.355011 -8.965854 21.454550 -0.003092 0.000000 6.540844 -1.932760 1.304106 3.027011 -3.898295 2.559569 2.708449 -3.882906 2.583074 18.956915 -14.044651 10.799461 -18.982018 5.265592 8.895056 -167.105947 -75.815837 -14.602057 13.962364 55.981924 21.827056 -39.571507 -14.826030 1.463098 9.176637 -7.459087 -4.220778 176.746062 85.669389 -1.654090 -44.486108 -63.430669 -0.595166 -38.766740 18.191820 -1.633629 6.039588 10.623951 4.433173 
-285.558014 90.254562 -1.650249 79.551848 0.333318 159.858597 152.865180 6.437393 174.845999 -14.298809 2.322984 -2.197115 73.847739 2.795233 3.888057 21.454558 0.003110 0.000018 171.497813 -7.649093 -170.276111 -29.539308 2.052267 -23.923419 74.650935 14.680170 -7.040652 21.454550 -0.003092 0.000000 6.470663 -2.263991 1.383074 2.876717 -4.560924 2.712643 2.557919 -4.544603 2.740164 17.693164 -14.809028 11.227408 -19.104288 6.256869 8.726791 -167.944093 -76.111960 -13.745113 12.538344 55.759352 20.750296 -41.396342 -15.292560 1.542243 8.587301 -6.699928 -2.227222 174.460872 86.193524 -3.939021 -44.594732 -63.304113 -3.446284 -33.356646 15.621286 -1.338644 6.806184 7.396005 4.800876 
-284.203796 90.534393 -0.982679 79.219211 -0.144983 157.361206 153.033161 5.726810 172.044529 -15.029042 2.890160 -2.090873 75.158329 2.760086 4.253840 21.454560 0.003109 0.000017 170.651443 -6.395489 -167.506988 -31.858704 1.606203 -26.089057 71.736910 17.082493 -4.434613 21.454558 -0.003091 -0.000002 6.449005 -2.505128 1.418854 2.826640 -5.043403 2.779945 2.507599 -5.026666 2.810390 17.194532 -15.248650 11.589328 -20.103303 6.435723 8.890307 -169.033918 -76.487375 -12.631122 12.218372 55.394747 20.953021 -44.715660 -15.979543 1.681539 7.917788 -5.879794 0.113998 167.940883 86.209610 -10.497118 -42.500849 -62.862035 -7.760532 -29.552644 13.562189 -1.128749 7.663055 1.679778 3.402551 
-282.843811 90.635612 -0.437347 79.230010 -0.722059 155.291208 153.389670 5.515198 170.254008 -15.860329 3.266949 -2.427096 76.487457 3.038301 4.660168 21.454558 0.003113 0.000019 169.328968 -4.723908 -165.456183 -35.411184 1.430408 -26.852242 68.569171 19.427643 0.296586 21.454557 -0.003093 0.000000 6.473577 -2.734676 1.320190 2.875677 -5.500601 2.576224 2.556333 -5.485085 2.609462 17.000474 -15.550462 11.870110 -21.460219 6.240082 9.155752 -170.676059 -76.213143 -10.950911 11.847945 54.564561 20.449738 -47.919852 -16.483620 1.812468 6.725139 -5.167953 2.015061 163.106065 86.371075 -15.351033 -40.274381 -62.584818 -10.046235 -26.872669 11.185779 -0.927623 8.708454 -1.983639 0.280269 
-281.464691 90.600189 0.085632 79.590398 -1.311648 153.538199 153.966520 5.420501 169.875902 -16.975073 2.945974 -3.399643 78.081596 3.641373 4.656999 21.454551 0.003105 0.000016 167.972479 -2.461700 -163.483405 -39.864020 1.915070 -26.181951 65.029405 22.134142 7.755046 21.454555 -0.003092 -0.000001 6.553461 -2.955504 1.134544 3.041140 -5.939187 2.195255 2.721440 -5.925966 2.231175 16.965758 -15.696208 12.155722 -22.778879 6.128599 9.434382 -171.034917 -76.348094 -10.583997 11.000376 54.653770 19.081952 -50.324400 -16.611493 1.898297 5.230226 -5.768972 2.997620 164.721924 86.496471 -13.721006 -37.007628 -62.413142 -13.105626 -25.689383 10.128111 -0.839727 10.450773 -4.309064 -2.235434 
